<svg width="24" height="24" viewBox="0 0 24 24" fill="none" xmlns="http://www.w3.org/2000/svg">
<g clip-path="url(#clip0_590_11970)">
<path d="M21 17C21 17.5523 20.5523 18 20 18H10C9.44771 18 9 17.5523 9 17C9 16.4477 9.44772 16 10 16H20C20.5523 16 21 16.4477 21 17ZM21 12C21 12.5523 20.5523 13 20 13H4C3.44772 13 3 12.5523 3 12C3 11.4477 3.44772 11 4 11H20C20.5523 11 21 11.4477 21 12ZM21 7C21 7.55228 20.5523 8 20 8H10C9.44771 8 9 7.55228 9 7C9 6.44772 9.44772 6 10 6H20C20.5523 6 21 6.44772 21 7Z" fill="white"/>
</g>
<defs>
<clipPath id="clip0_590_11970">
<rect width="24" height="24" fill="white"/>
</clipPath>
</defs>
</svg>
