<svg viewBox="0 0 20 20" fill="none" xmlns="http://www.w3.org/2000/svg">
<path d="M10 19.5C15.2467 19.5 19.5 15.2467 19.5 10C19.5 4.75329 15.2467 0.5 10 0.5C4.75329 0.5 0.5 4.75329 0.5 10C0.5 15.2467 4.75329 19.5 10 19.5Z" stroke="#FFCA42"/>
<path d="M10 20C8.687 20 7.386 19.7413 6.173 19.2388C4.96 18.7362 3.858 17.9997 2.929 17.0711C2 16.1425 1.264 15.0401 0.761002 13.8268C0.259002 12.6136 0 11.3132 0 10C0 8.68678 0.259002 7.38642 0.761002 6.17316C1.264 4.95991 2 3.85752 2.929 2.92893C3.858 2.00035 4.96 1.26375 6.173 0.761204C7.386 0.258657 8.687 -1.72208e-07 10 0V10V20Z" fill="#FFCA42"/>
</svg>
